<?xml version="1.0" encoding="utf-8"?>
<!-- Generator: Adobe Illustrator 18.0.0, SVG Export Plug-In . SVG Version: 6.00 Build 0)  -->
<!DOCTYPE svg PUBLIC "-//W3C//DTD SVG 1.1//EN" "http://www.w3.org/Graphics/SVG/1.1/DTD/svg11.dtd">
<svg version="1.1" id="Capa_1" xmlns="http://www.w3.org/2000/svg" xmlns:xlink="http://www.w3.org/1999/xlink" x="0px" y="0px"
	 viewBox="0 0 100 100" enable-background="new 0 0 100 100" xml:space="preserve">
<g>
	<path fill="#1D1D1B" d="M48.9,47.9c-2.1-12-14.2-17.7-25.3-14.7c-0.9,0.2-1.3,0.9-1.4,1.6c-6.9,3.8-10.8,11.6-9.4,19.6
		c1.7,10.1,12.6,15.1,21.8,12.9C43.1,65.3,50.5,56.9,48.9,47.9z M34.4,63.5C27,66,18.9,61.9,16.7,54.4c-2.3-7.9,3.8-15.9,11.4-17.6
		c0.4-0.1,0.7-0.3,0.9-0.5c7.5-0.3,14.3,3.9,16.2,11.8C46.8,55.2,40.6,61.4,34.4,63.5z"/>
</g>
<path fill="#1D1D1B" d="M20.4,57.1c2.9-2.4,6.2-5.1,10.1-8.5c2.4-2.2,4.7-6.9,4.8-9.5c0.1-3.1-2.4-2.2-5.1,0.7
	c-3.6,3.9-6.7,6.9-9.4,9.6c-1.6,1.6-3,4.2-3,6.3C17.8,57.5,18.9,58.3,20.4,57.1z"/>
<g>
	<path fill="#1D1D1B" d="M51.4,52.3C53.5,64.3,65.6,70,76.7,67c0.9-0.2,1.3-0.9,1.4-1.6c6.9-3.8,10.7-11.6,9.4-19.7
		c-1.7-10.1-12.6-15.1-21.9-12.8C57.2,34.9,49.8,43.3,51.4,52.3z M65.9,36.8c7.4-2.5,15.5,1.5,17.7,9.1c2.3,7.9-3.8,15.9-11.3,17.6
		c-0.4,0.1-0.7,0.3-0.9,0.5c-7.5,0.3-14.3-3.8-16.2-11.8C53.5,45,59.7,38.8,65.9,36.8z"/>
</g>
<path fill="#1D1D1B" d="M27.9,62.9c2.9-2.4,6.2-5.1,10.1-8.5c2.4-2.2,4.7-6.9,4.8-9.5c0.1-3.1-2.4-2.2-5.1,0.7
	c-3.6,3.9-6.7,6.9-9.4,9.6c-1.6,1.6-3,4.2-3,6.3C25.3,63.2,26.4,64,27.9,62.9z"/>
<path fill="#1D1D1B" d="M80.2,43.4c-3.1,2.2-6.6,4.7-10.7,7.9c-2.6,2-5.4,6.6-5.7,9.1c-0.4,3.1,2.1,2.3,5.1-0.4
	c3.9-3.6,7.2-6.4,10.2-8.9c1.8-1.5,3.3-4,3.5-6.1C82.7,43.3,81.7,42.4,80.2,43.4z"/>
<path fill="#1D1D1B" d="M73.1,37.7c-3.1,2.1-6.6,4.5-10.7,7.7c-2.6,2-5.3,6.5-5.6,9c-0.4,3.1,2.2,2.4,5.1-0.3
	c3.9-3.5,7.2-6.3,10.2-8.7c1.8-1.5,3.3-3.9,3.5-6C75.7,37.5,74.6,36.6,73.1,37.7z"/>
<path fill="#1D1D1B" d="M95.8,18c0-9.2-6.7-13.9-20-13.9c-1.9,0-3.7,0.1-5.3,0.1l-0.4,0C62,4.6,53.8,4.6,46.1,4.6l-11.2,0
	c-1.7,0-3.5,0-5.2,0l-1.6,0c-1.7,0-3.3,0-5,0c-1.7,0-3.3,0-5,0c-4,0-7.2,1.2-9.5,3.6c-4.8,5.1-4.4,13.9-4.1,21
	c0.1,1.6,0.1,3.1,0.1,4.3c0,2.3,0,4.5,0,6.8c0,6.3,0.1,12.9-0.3,19.3l-0.1,2c-0.5,7-1,14.1,0.7,21.2c2.4,10.3,8.9,12.6,13.9,12.8
	c5.5,0.2,11.6,0.3,18.4,0.3c6.6,0,13.4-0.1,19.9-0.2c6.5-0.1,13.2-0.2,19.8-0.2h0.3c0.5,0,1,0,1.5,0c4.7,0.1,9.7,0,13.3-4.3
	c3.4-4,3.6-9.3,3.7-13.5l0-0.7c0.2-5,0.3-10.4,0.3-17c0-6.8-0.1-13.7-0.1-20.3C95.9,32.7,95.8,25.3,95.8,18z M90.4,76.9l0,0.7
	c-0.1,3.7-0.3,7.6-2.4,10.1c-1.7,2-4,2.3-7.5,2.3c-0.5,0-1,0-1.5,0c-0.5,0-1,0-1.6,0H77c-6.6,0-13.4,0.1-19.9,0.2
	c-6.5,0.1-13.2,0.2-19.8,0.2c-6.8,0-12.8-0.1-18.2-0.3c-3.1-0.1-7-1.2-8.7-8.6c-1.5-6.2-1-13-0.5-19.5l0.1-2
	c0.4-6.6,0.4-13.3,0.4-19.7c0-2.3,0-4.5,0-6.8c0-1.4-0.1-3-0.1-4.6C9.9,23.2,9.5,15.4,12.7,12c1.2-1.3,3-1.9,5.5-1.9
	c1.7,0,3.3,0,5,0c1.7,0,3.3,0,5,0l1.6,0c1.7,0,3.5,0,5.2,0l11.2,0c7.7,0,16,0,24.3-0.4l0.4,0c1.5-0.1,3.3-0.1,5-0.1
	c12.8,0,14.5,4.2,14.5,8.4c0,7.3,0.1,14.8,0.2,22c0.1,6.6,0.1,13.5,0.1,20.3C90.6,66.6,90.5,71.9,90.4,76.9z"/>
</svg>
